# xmcd
#
# Track frame offsets:
#	150
#	17665
#	31437
#	44572
#	61940
#	78631
#	93765
#	110938
#	128915
#	147203
#	163374
#
# Disc length: 2382 seconds
#
# Revision: 0
# Processed by: cddbd v1.4PL0 Copyright (c) Steve Scherf et al.
# Submitted via: audiograbber 1.81.03
#
DISCID=9a094c0b
DTITLE=Reid Furniss - Love Remains
DYEAR=1999
DGENRE=Country
TTITLE0=Love Me
TTITLE1=Somewhere In My Broken Heart
TTITLE2=Some Guys Have All the Love
TTITLE3=Lost In the 50's
TTITLE4=The Walk
TTITLE5=Seein' My Father In Me
TTITLE6=Carrying Your Love With Me
TTITLE7=Keeper of the Stars
TTITLE8=Can You Feel the Love
TTITLE9=Love Remains
TTITLE10=I Cross My Heart
EXTD=
EXTT0=
EXTT1=
EXTT2=
EXTT3=
EXTT4=
EXTT5=
EXTT6=
EXTT7=
EXTT8=
EXTT9=
EXTT10=
PLAYORDER=
